Encoded By .......:UnKnOwN
Runtime ..........:0:15
IMDb URL .........:http://www.imdb.com/title/tt1520494/
Language .........:English
File Size ........:230mb
Release Date ......... 2011
Source ......... Thanks Bud
File Type ......... Single AVI
PS3 Compatible ....... Sure why not
Genre ......... Horror/Sci fi/Short
-


Video
ID : 0
Format : MPEG-4 Visual
Format profile : Advanced Simple@L5
Format settings, BVOP : Yes
Format settings, QPel : No
Format settings, GMC : No warppoints
Format settings, Matrix : Custom
Codec ID : XVID
Codec ID/Hint : XviD
Duration : 0h 15mn
Bit rate : 2380Kbps
Width : 720pixels
Height : 304pixels
Display aspect ratio : 2.35
Frame rate : 23.997fps
Color space : YUV
Chroma subsampling : 4:2:0
Bit depth : 8 bits
Scan type : Progressive
Bits/(Pixel*Frame) : 0.234
Stream size : 892 MiB (86%)
Writing library : XviD 1.2.1 (UTC 2008-12-04)

Audio
ID : 1
Format : MPEG
Format/Info : Version 1
Mode extension : MP3
Codec ID : 2000
Duration : 0h 15mn
Bit rate mode : Constant
Bit rate : 448Kbps
Channel(s) : 6channels
Channel positions : Front: L R
Sampling rate : 48.0 KHz
Bit depth : 16 bits
Stream size : 302 MiB
Alignment : Aligned on interleaves
Interleave, duration : 42 ms (1.00 video frame)
Interleave, preload duration : 512 ms

-

SYSPNOSIS
A story about a boy, his robot and the consequences of his anger at the
disintegration of his parents marriage.
-


RELEASE INFO
Robts gone wild
